# xmcd
#
# Track frame offsets:
#  150
#  15440
#  33130
#  53677
#  65897
#  81890
#  98627
#  114612
#  128455
#  145067
#  165915
#  184077
#  205872
#  227382
#  243040
#  260887
#
# Disc length: 3796 seconds
#
# Revision: 3
# Processed by: cddbd v1.5.1PL2 Copyright (c) Steve Scherf et al.
# Submitted via: Collectorz.com_Music_Collector 6.11
#
DISCID=c40ed210
DTITLE=Various Artist - Night Feelings Vol. 2
DYEAR=1990
DGENRE=Blues
TTITLE0=REO Speedwagon - Keep On Loving You
TTITLE1=Cock Robin - The Promise You Made
TTITLE2=Dolly Parton - The River Unbroken
TTITLE3=Sweetshearts of the Rodeo - Satisfy You
TTITLE4=Willie Nelson - Always On My Mind
TTITLE5=Alexander O'Neal - A Broken Heart Can Mend
TTITLE6=Thomas Lang - Me and Mrs. Jones
TTITLE7=Johnny Logan - Hold Me Now
TTITLE8=Luther Vandross - So Amazing
TTITLE9=Terence Trent D'Arby - Sign Your Name
TTITLE10=Kokomo - A Little Bit Further Away
TTITLE11=Clarence Clemons - Jackson Browne - You're A Friend Of Mine
TTITLE12=Santana - I Love You Much Too Much
TTITLE13=Eighth Wonder - Cross My Heart
TTITLE14='Til Tuesday - What About Love
TTITLE15=Ellen Foley - We Belong To The Night
EXTD=
EXTT0=
EXTT1=
EXTT2=
EXTT3=
EXTT4=
EXTT5=
EXTT6=
EXTT7=
EXTT8=
EXTT9=
EXTT10=
EXTT11=
EXTT12=
EXTT13=
EXTT14=
EXTT15=
PLAYORDER=
